# Blender 4.4.3
# www.blender.org
mtllib Debris8.mtl
o DebrisObject08
v 0.320835 0.845079 0.695645
v 0.308196 0.855164 0.695645
v 0.295556 0.865249 0.695645
v -0.298223 -0.867568 -0.814478
v -0.303222 -0.863579 -0.814478
v -0.308221 -0.859591 -0.814478
v 0.320836 0.845079 0.814478
v 0.308196 0.855165 0.814478
v 0.295556 0.865249 0.814478
v -0.298223 -0.867568 -0.757110
v -0.303222 -0.863579 -0.757110
v -0.308221 -0.859591 -0.757110
vn 0.4109 0.5149 -0.7524
vn 0.4108 0.5149 -0.7524
vn -0.4201 -0.5265 0.7392
vn -0.4200 -0.5265 0.7392
vn 0.6237 0.7817 -0.0000
vn -0.9438 0.3304 -0.0000
vn -0.6237 -0.7817 -0.0000
vn 0.9404 -0.3399 -0.0000
vt 0.676362 0.427206
vt 0.678728 0.603654
vt 0.683204 0.420598
vt 0.682031 0.600464
s 1
usemtl SDP_DebrisMaterial01.007
f 1/1/1 4/2/2 5/2/2
f 5/2/2 2/1/1 1/1/1
f 2/1/1 5/2/2 6/2/2
f 6/2/2 3/1/2 2/1/1
f 7/3/3 8/3/3 11/4/3
f 11/4/3 10/4/3 7/3/3
f 8/3/3 9/3/3 12/4/4
f 12/4/4 11/4/3 8/3/3
f 1/1/5 2/1/5 8/3/5
f 8/3/5 7/3/5 1/1/5
f 2/1/5 3/1/5 9/3/5
f 9/3/5 8/3/5 2/1/5
f 3/1/6 6/2/6 12/4/6
f 12/4/6 9/3/6 3/1/6
f 6/2/7 5/2/7 11/4/7
f 11/4/7 12/4/7 6/2/7
f 5/2/7 4/2/7 10/4/7
f 10/4/7 11/4/7 5/2/7
f 4/2/8 1/1/8 7/3/8
f 7/3/8 10/4/8 4/2/8
